<mxfile host="app.diagrams.net" modified="2024-06-24T06:47:48.430Z" agent="Mozilla/5.0 (Macintosh; Intel Mac OS X 10_15_7) AppleWebKit/537.36 (KHTML, like Gecko) Chrome/126.0.0.0 Safari/537.36" etag="k_w1QhVhGpUQNIav5atR" version="23.1.5" type="github">
  <diagram name="第1頁" id="1wklVr72N6ZmMu-Cdv6m">
    <mxGraphModel dx="1199" dy="1715" grid="1" gridSize="10" guides="1" tooltips="1" connect="1" arrows="1" fold="1" page="1" pageScale="1" pageWidth="827" pageHeight="1169" math="0" shadow="0">
      <root>
        <mxCell id="0" />
        <mxCell id="1" parent="0" />
        <mxCell id="8QyEa9IOrjfCE1RIOH5n-1" value="" style="rounded=0;whiteSpace=wrap;html=1;" vertex="1" parent="1">
          <mxGeometry x="40" y="620" width="710" height="440" as="geometry" />
        </mxCell>
        <mxCell id="8QyEa9IOrjfCE1RIOH5n-2" value="Sunny Bank Guest Network" style="text;html=1;align=center;verticalAlign=middle;whiteSpace=wrap;rounded=0;" vertex="1" parent="1">
          <mxGeometry x="650" y="-90" width="160" height="30" as="geometry" />
        </mxCell>
        <mxCell id="8QyEa9IOrjfCE1RIOH5n-3" value="MF-Admin" style="rounded=1;whiteSpace=wrap;html=1;" vertex="1" parent="1">
          <mxGeometry x="250" y="120" width="120" height="60" as="geometry" />
        </mxCell>
        <mxCell id="8QyEa9IOrjfCE1RIOH5n-4" value="Auth Service" style="rounded=1;whiteSpace=wrap;html=1;" vertex="1" parent="1">
          <mxGeometry x="467.7" y="120" width="120" height="60" as="geometry" />
        </mxCell>
        <mxCell id="8QyEa9IOrjfCE1RIOH5n-11" value="" style="endArrow=classic;startArrow=classic;html=1;rounded=0;exitX=1;exitY=0.5;exitDx=0;exitDy=0;entryX=0;entryY=0.5;entryDx=0;entryDy=0;" edge="1" parent="1" source="8QyEa9IOrjfCE1RIOH5n-3" target="8QyEa9IOrjfCE1RIOH5n-4">
          <mxGeometry width="50" height="50" relative="1" as="geometry">
            <mxPoint x="420" y="180" as="sourcePoint" />
            <mxPoint x="470" y="130" as="targetPoint" />
          </mxGeometry>
        </mxCell>
        <mxCell id="8QyEa9IOrjfCE1RIOH5n-14" value="" style="sketch=0;html=1;aspect=fixed;strokeColor=none;shadow=0;fillColor=#3B8DF1;verticalAlign=top;labelPosition=center;verticalLabelPosition=bottom;shape=mxgraph.gcp2.phone_android" vertex="1" parent="1">
          <mxGeometry x="533.0999999999999" y="320" width="39.2" height="70" as="geometry" />
        </mxCell>
        <mxCell id="8QyEa9IOrjfCE1RIOH5n-16" value="" style="sketch=0;pointerEvents=1;shadow=0;dashed=0;html=1;strokeColor=none;fillColor=#434445;aspect=fixed;labelPosition=center;verticalLabelPosition=bottom;verticalAlign=top;align=center;outlineConnect=0;shape=mxgraph.vvd.web_browser;" vertex="1" parent="1">
          <mxGeometry x="274.79" y="330" width="70.43" height="50" as="geometry" />
        </mxCell>
        <mxCell id="8QyEa9IOrjfCE1RIOH5n-18" value="Browser to manage EKS locks" style="text;html=1;align=center;verticalAlign=middle;whiteSpace=wrap;rounded=0;" vertex="1" parent="1">
          <mxGeometry x="285.22" y="385" width="60" height="40" as="geometry" />
        </mxCell>
        <mxCell id="8QyEa9IOrjfCE1RIOH5n-19" value="EKS App" style="text;html=1;align=center;verticalAlign=middle;whiteSpace=wrap;rounded=0;" vertex="1" parent="1">
          <mxGeometry x="517.6999999999999" y="395" width="70" height="20" as="geometry" />
        </mxCell>
        <mxCell id="8QyEa9IOrjfCE1RIOH5n-20" value="" style="sketch=0;points=[[0.5,0,0],[1,0.5,0],[0.5,1,0],[0,0.5,0],[0.145,0.145,0],[0.8555,0.145,0],[0.855,0.8555,0],[0.145,0.855,0]];verticalLabelPosition=bottom;html=1;verticalAlign=top;aspect=fixed;align=center;pointerEvents=1;shape=mxgraph.cisco19.lock;fillColor=#005073;strokeColor=none;" vertex="1" parent="1">
          <mxGeometry x="402.3" y="330" width="50" height="50" as="geometry" />
        </mxCell>
        <mxCell id="8QyEa9IOrjfCE1RIOH5n-24" value="Bluetooth" style="text;html=1;align=center;verticalAlign=middle;whiteSpace=wrap;rounded=0;" vertex="1" parent="1">
          <mxGeometry x="462.3" y="330" width="66" height="25" as="geometry" />
        </mxCell>
        <mxCell id="8QyEa9IOrjfCE1RIOH5n-25" value="" style="image;html=1;image=img/lib/clip_art/networking/Wireless_Router_N_128x128.png" vertex="1" parent="1">
          <mxGeometry x="402.3" y="210" width="60" height="66" as="geometry" />
        </mxCell>
        <mxCell id="8QyEa9IOrjfCE1RIOH5n-26" value="EKS Locks" style="text;html=1;align=center;verticalAlign=middle;whiteSpace=wrap;rounded=0;" vertex="1" parent="1">
          <mxGeometry x="392.3" y="390" width="70" height="20" as="geometry" />
        </mxCell>
        <mxCell id="8QyEa9IOrjfCE1RIOH5n-27" value="" style="endArrow=classic;startArrow=classic;html=1;rounded=0;entryX=-0.031;entryY=0.486;entryDx=0;entryDy=0;entryPerimeter=0;" edge="1" parent="1" target="8QyEa9IOrjfCE1RIOH5n-14">
          <mxGeometry width="50" height="50" relative="1" as="geometry">
            <mxPoint x="452.3" y="355" as="sourcePoint" />
            <mxPoint x="502.3" y="305" as="targetPoint" />
          </mxGeometry>
        </mxCell>
        <mxCell id="8QyEa9IOrjfCE1RIOH5n-28" value="" style="endArrow=classic;startArrow=classic;html=1;rounded=0;" edge="1" parent="1">
          <mxGeometry width="50" height="50" relative="1" as="geometry">
            <mxPoint x="320" y="320" as="sourcePoint" />
            <mxPoint x="400" y="270" as="targetPoint" />
          </mxGeometry>
        </mxCell>
        <mxCell id="8QyEa9IOrjfCE1RIOH5n-30" value="" style="endArrow=classic;startArrow=classic;html=1;rounded=0;" edge="1" parent="1">
          <mxGeometry width="50" height="50" relative="1" as="geometry">
            <mxPoint x="530" y="320" as="sourcePoint" />
            <mxPoint x="462.3" y="270" as="targetPoint" />
          </mxGeometry>
        </mxCell>
        <mxCell id="8QyEa9IOrjfCE1RIOH5n-31" value="" style="endArrow=classic;startArrow=classic;html=1;rounded=0;" edge="1" parent="1">
          <mxGeometry width="50" height="50" relative="1" as="geometry">
            <mxPoint x="430" y="320" as="sourcePoint" />
            <mxPoint x="430" y="280" as="targetPoint" />
          </mxGeometry>
        </mxCell>
      </root>
    </mxGraphModel>
  </diagram>
</mxfile>
